<svg id="Capa_1" enable-background="new 0 0 512 512" height="512" viewBox="0 0 512 512" width="512" xmlns="http://www.w3.org/2000/svg"><path d="m511.683 21.53-10.607-10.607-10.606-10.606c-83.623 1.652-163.033 35.754-222.355 95.075l-172.722 172.723c-59.322 59.322-93.424 138.732-95.076 222.355l10.607 10.607 10.607 10.607c83.623-1.652 163.033-35.754 222.355-95.075l172.722-172.722c59.321-59.324 93.423-138.734 95.075-222.357z" fill="#ffe365"/><path d="m243.885 416.607 172.722-172.722c59.322-59.322 93.423-138.732 95.075-222.355l-10.607-10.607-490.151 490.153 10.607 10.607c83.622-1.652 163.032-35.754 222.354-95.076z" fill="#ffc733"/><path d="m330.246 181.754c-17.546-17.546-46.093-17.546-63.64 0l-84.853 84.853c-17.546 17.546-17.546 46.093 0 63.64s46.093 17.546 63.64 0l84.853-84.853c17.547-17.547 17.547-46.094 0-63.64z" fill="#575f64"/><path d="m245.393 330.246 84.853-84.853c17.546-17.546 17.546-46.093 0-63.64l-148.492 148.493c17.546 17.547 46.093 17.547 63.639 0z" fill="#474f54"/><circle cx="368.722" cy="100.851" fill="#575f64" r="15"/><circle cx="411.149" cy="143.278" fill="#474f54" r="15"/><circle cx="100.851" cy="368.722" fill="#575f64" r="15"/><circle cx="143.278" cy="411.149" fill="#474f54" r="15"/><path d="m512 14.998c0-4.143-1.678-7.893-4.392-10.607-2.714-2.713-6.463-4.391-10.606-4.391-2.196 0-4.343.274-6.532.317l-68.714 68.714c-5.863 5.863-5.863 15.351 0 21.213 5.863 5.863 15.351 5.863 21.213 0l68.714-68.714c.043-2.189.317-4.336.317-6.532z" fill="#ffc733"/><path d="m442.969 90.245 68.714-68.714c.043-2.189.317-4.336.317-6.532 0-4.143-1.678-7.893-4.392-10.607l-85.853 85.853c5.863 5.862 15.351 5.862 21.214 0z" fill="#ff7976"/><path d="m90.245 421.755c-5.863-5.863-15.351-5.863-21.213 0l-68.715 68.715c-.043 2.189-.317 4.336-.317 6.532 0 4.143 1.678 7.893 4.392 10.607 2.714 2.713 6.463 4.391 10.606 4.391 2.196 0 4.343-.274 6.532-.317l68.714-68.714c5.863-5.863 5.863-15.351.001-21.214z" fill="#ffc733"/><path d="m21.53 511.683 68.714-68.714c5.863-5.863 5.863-15.351 0-21.213l-85.852 85.852c2.714 2.714 6.463 4.392 10.606 4.392 2.196 0 4.343-.274 6.532-.317z" fill="#ff7976"/><path d="m400.537 379.324-133.93-133.93-133.93-133.93c-5.863-5.863-15.351-5.863-21.213 0s-5.863 15.351 0 21.213l133.93 133.93 133.93 133.93c5.863 5.863 15.351 5.863 21.213 0 5.863-5.863 5.863-15.351 0-21.213z" fill="#e7e7f2"/><path d="m400.537 400.537c5.863-5.863 5.863-15.351 0-21.213l-133.93-133.93-21.213 21.213 133.93 133.93c5.862 5.863 15.35 5.863 21.213 0z" fill="#cecee6"/><path d="m443.963 507.603-64.572-64.572c-2.817-2.817-4.392-6.629-4.392-10.607v-42.426c0-8.286 6.712-14.998 14.998-14.998h42.426c3.977 0 7.789 1.574 10.607 4.392l64.572 64.572c5.863 5.863 5.863 15.351 0 21.213l-42.426 42.426c-5.862 5.863-15.35 5.863-21.213 0z" fill="#ffc733"/><path d="m68.969 132.608-64.572-64.571c-5.863-5.863-5.863-15.351 0-21.213l42.426-42.427c5.863-5.863 15.351-5.863 21.213 0l64.572 64.572c2.817 2.817 4.392 6.629 4.392 10.607v42.426c0 8.286-6.712 14.998-14.998 14.998h-42.427c-3.977 0-7.789-1.574-10.606-4.392z" fill="#ffe365"/></svg>